HIERARCHY
ROOT Hips
{
    OFFSET   0.000000   0.000000   0.000000
    CHANNELS 6 Xposition Yposition Zposition Zrotation Xrotation Yrotation
    JOINT Chest
    {
        OFFSET   0.000000   8.007230   0.000000
        CHANNELS 3 Zrotation Xrotation Yrotation
        JOINT Chest2
        {
            OFFSET   0.000000  22.077100   0.000000
            CHANNELS 3 Zrotation Xrotation Yrotation
            JOINT Neck
            {
                OFFSET   0.000000  23.254800   0.000000
                CHANNELS 3 Zrotation Xrotation Yrotation
                JOINT Head
                {
                    OFFSET   0.000010  14.370000   1.956600
                    CHANNELS 3 Zrotation Xrotation Yrotation
                    End Site
                    {
                        OFFSET   0.000000  19.566000   0.000000
                    }
                }
            }
            JOINT LeftCollar
            {
                OFFSET   3.911900  19.017000  -0.467062
                CHANNELS 3 Zrotation Xrotation Yrotation
                JOINT LeftShoulder
                {
                    OFFSET  10.383700   0.000000   0.000000
                    CHANNELS 3 Zrotation Xrotation Yrotation
                    JOINT LeftElbow
                    {
                        OFFSET  26.662100   0.001193   0.000835
                        CHANNELS 3 Zrotation Xrotation Yrotation
                        JOINT LeftWrist
                        {
                            OFFSET  28.869000  -0.000058  -0.000075
                            CHANNELS 3 Zrotation Xrotation Yrotation
                            JOINT LeftFinger0
                            {
                                OFFSET   2.044660  -2.323460   3.252850
                                CHANNELS 3 Zrotation Xrotation Yrotation
                                JOINT LeftFinger01
                                {
                                    OFFSET   3.088130   0.000000   0.000000
                                    CHANNELS 3 Zrotation Xrotation Yrotation
                                    JOINT LeftFinger02
                                    {
                                        OFFSET   2.639450   0.000000   0.000000
                                        CHANNELS 3 Zrotation Xrotation Yrotation
                                        End Site
                                        {
                                            OFFSET   2.582190   0.000000   0.000000
                                        }
                                    }
                                }
                            }
                            JOINT LeftFinger1
                            {
                                OFFSET   8.364480   0.000000   3.252850
                                CHANNELS 3 Zrotation Xrotation Yrotation
                                JOINT LeftFinger11
                                {
                                    OFFSET   4.646920   0.000000   0.000000
                                    CHANNELS 3 Zrotation Xrotation Yrotation
                                    JOINT LeftFinger12
                                    {
                                        OFFSET   2.323460   0.000000   0.000000
                                        CHANNELS 3 Zrotation Xrotation Yrotation
                                        End Site
                                        {
                                            OFFSET   2.273050   0.000000   0.000000
                                        }
                                    }
                                }
                            }
                            JOINT LeftFinger2
                            {
                                OFFSET   8.364490   0.000016   1.078090
                                CHANNELS 3 Zrotation Xrotation Yrotation
                                JOINT LeftFinger21
                                {
                                    OFFSET   5.111620   0.000000   0.000000
                                    CHANNELS 3 Zrotation Xrotation Yrotation
                                    JOINT LeftFinger22
                                    {
                                        OFFSET   2.788150   0.000012   0.000000
                                        CHANNELS 3 Zrotation Xrotation Yrotation
                                        End Site
                                        {
                                            OFFSET   2.727660   0.000000   0.000000
                                        }
                                    }
                                }
                            }
                            JOINT LeftFinger3
                            {
                                OFFSET   7.899780   0.000014  -1.078090
                                CHANNELS 3 Zrotation Xrotation Yrotation
                                JOINT LeftFinger31
                                {
                                    OFFSET   4.646930   0.000000   0.000000
                                    CHANNELS 3 Zrotation Xrotation Yrotation
                                    JOINT LeftFinger32
                                    {
                                        OFFSET   2.323470   0.000000   0.000000
                                        CHANNELS 3 Zrotation Xrotation Yrotation
                                        End Site
                                        {
                                            OFFSET   2.273050   0.000000   0.000000
                                        }
                                    }
                                }
                            }
                            JOINT LeftFinger4
                            {
                                OFFSET   7.435090   0.000000  -3.252850
                                CHANNELS 3 Zrotation Xrotation Yrotation
                                JOINT LeftFinger41
                                {
                                    OFFSET   3.717550   0.000000   0.000000
                                    CHANNELS 3 Zrotation Xrotation Yrotation
                                    JOINT LeftFinger42
                                    {
                                        OFFSET   1.858770   0.000000   0.000000
                                        CHANNELS 3 Zrotation Xrotation Yrotation
                                        End Site
                                        {
                                            OFFSET   1.818440   0.000000   0.000000
                                        }
                                    }
                                }
                            }
                        }
                    }
                }
            }
            JOINT RightCollar
            {
                OFFSET  -3.911900  19.017000  -0.467063
                CHANNELS 3 Zrotation Xrotation Yrotation
                JOINT RightShoulder
                {
                    OFFSET -10.383700   0.000023   0.000000
                    CHANNELS 3 Zrotation Xrotation Yrotation
                    JOINT RightElbow
                    {
                        OFFSET -26.662100   0.001246   0.001011
                        CHANNELS 3 Zrotation Xrotation Yrotation
                        JOINT RightWrist
                        {
                            OFFSET -28.869000  -0.000026  -0.000078
                            CHANNELS 3 Zrotation Xrotation Yrotation
                            JOINT RightFinger0
                            {
                                OFFSET  -2.044660  -2.323490   3.252850
                                CHANNELS 3 Zrotation Xrotation Yrotation
                                JOINT RightFinger01
                                {
                                    OFFSET  -3.088130   0.000000   0.000000
                                    CHANNELS 3 Zrotation Xrotation Yrotation
                                    JOINT RightFinger02
                                    {
                                        OFFSET  -2.639460   0.000000   0.000000
                                        CHANNELS 3 Zrotation Xrotation Yrotation
                                        End Site
                                        {
                                            OFFSET  -2.582190   0.000000   0.000000
                                        }
                                    }
                                }
                            }
                            JOINT RightFinger1
                            {
                                OFFSET  -8.364480   0.000000   3.252850
                                CHANNELS 3 Zrotation Xrotation Yrotation
                                JOINT RightFinger11
                                {
                                    OFFSET  -4.646920   0.000000   0.000000
                                    CHANNELS 3 Zrotation Xrotation Yrotation
                                    JOINT RightFinger12
                                    {
                                        OFFSET  -2.323470   0.000000   0.000000
                                        CHANNELS 3 Zrotation Xrotation Yrotation
                                        End Site
                                        {
                                            OFFSET  -2.273050   0.000000   0.000000
                                        }
                                    }
                                }
                            }
                            JOINT RightFinger2
                            {
                                OFFSET  -8.364480   0.000000   1.078090
                                CHANNELS 3 Zrotation Xrotation Yrotation
                                JOINT RightFinger21
                                {
                                    OFFSET  -5.111620   0.000000   0.000000
                                    CHANNELS 3 Zrotation Xrotation Yrotation
                                    JOINT RightFinger22
                                    {
                                        OFFSET  -2.788160   0.000000   0.000000
                                        CHANNELS 3 Zrotation Xrotation Yrotation
                                        End Site
                                        {
                                            OFFSET  -2.727660   0.000000   0.000000
                                        }
                                    }
                                }
                            }
                            JOINT RightFinger3
                            {
                                OFFSET  -7.899780   0.000000  -1.078090
                                CHANNELS 3 Zrotation Xrotation Yrotation
                                JOINT RightFinger31
                                {
                                    OFFSET  -4.646930   0.000000   0.000000
                                    CHANNELS 3 Zrotation Xrotation Yrotation
                                    JOINT RightFinger32
                                    {
                                        OFFSET  -2.323470   0.000000   0.000000
                                        CHANNELS 3 Zrotation Xrotation Yrotation
                                        End Site
                                        {
                                            OFFSET  -2.273050   0.000000   0.000000
                                        }
                                    }
                                }
                            }
                            JOINT RightFinger4
                            {
                                OFFSET  -7.435090   0.000000  -3.252850
                                CHANNELS 3 Zrotation Xrotation Yrotation
                                JOINT RightFinger41
                                {
                                    OFFSET  -3.717550   0.000000   0.000000
                                    CHANNELS 3 Zrotation Xrotation Yrotation
                                    JOINT RightFinger42
                                    {
                                        OFFSET  -1.858760   0.000000   0.000000
                                        CHANNELS 3 Zrotation Xrotation Yrotation
                                        End Site
                                        {
                                            OFFSET  -1.818440   0.000000   0.000000
                                        }
                                    }
                                }
                            }
                        }
                    }
                }
            }
        }
    }
    JOINT LeftHip
    {
        OFFSET   9.783010   0.000000   0.000000
        CHANNELS 3 Zrotation Xrotation Yrotation
        JOINT LeftKnee
        {
            OFFSET   0.000073 -41.789100   0.001749
            CHANNELS 3 Zrotation Xrotation Yrotation
            JOINT LeftAnkle
            {
                OFFSET   0.000111 -41.133200  -0.000179
                CHANNELS 3 Zrotation Xrotation Yrotation
                JOINT LeftToe
                {
                    OFFSET   0.000000  -6.358960  14.674500
                    CHANNELS 3 Zrotation Xrotation Yrotation
                    End Site
                    {
                        OFFSET   0.000000   0.000000   3.913200
                    }
                }
            }
        }
    }
    JOINT RightHip
    {
        OFFSET  -9.783010   0.000000   0.000000
        CHANNELS 3 Zrotation Xrotation Yrotation
        JOINT RightKnee
        {
            OFFSET   0.000424 -41.789200   0.005205
            CHANNELS 3 Zrotation Xrotation Yrotation
            JOINT RightAnkle
            {
                OFFSET   0.000000 -41.133200  -0.000155
                CHANNELS 3 Zrotation Xrotation Yrotation
                JOINT RightToe
                {
                    OFFSET   0.000000  -6.358960  14.674500
                    CHANNELS 3 Zrotation Xrotation Yrotation
                    End Site
                    {
                        OFFSET   0.000000   0.000000   3.913200
                    }
                }
            }
        }
    }
}
MOTION
Frames: 4
Frame Time:   0.016667
  0.311459  89.527000  -0.294726  -3.055080  -8.799710  -1.289480   0.595988   4.752560  -0.636924   1.251650   9.497940  -1.330510  -0.290683  -0.041464   0.010267  -0.477586  -0.084584   5.468410  -3.393990  -0.315009   1.018000 -74.877200  14.924600  -3.629200  -1.464360  -3.257800 -13.637700  15.297800  -1.704770   0.559421  43.126700  36.598000 -65.618300 -29.411100   0.001666   0.014360  -9.705570   0.000831   0.006161 -32.963400   5.865700  -8.955510 -27.346300  -0.000930  -0.001281 -19.142400   0.004453  -0.008666 -29.111200  -1.278310   2.294170 -43.705300  -0.003219  -0.006568 -29.107700   0.000113  -0.014566 -30.097000  -1.317620   2.271850 -45.184500   0.000938  -0.013089 -30.092900   0.001283   0.000421 -36.945900  -1.579170   2.098510 -55.462400   0.002666  -0.001008 -36.937900   0.008988  -0.005949   9.129560   0.192511   4.778070  69.354200   4.620970  -7.937210   0.040473  -6.059260  10.567700 -10.347400  -8.221490   1.566630 -51.311300  38.294800  76.922200  13.183600  -0.000416  -0.000686   1.591810   0.006078  -0.007561  36.040400  11.219600  14.970300  30.697500   0.009401   0.006519  21.488200   0.001334   0.006452  31.056600   3.664470   6.059210  46.875800  -0.000662  -0.001057  31.219300   0.003925   0.006219  27.880600  -3.726900  -7.002280  32.736600   0.006007   0.001572  21.802600   0.004088  -0.000481  31.415400  -4.430030  -7.207680  47.542000   0.003453   0.000287  31.662900  -0.006052  -0.001025   2.395080  12.246300  -1.837220   0.532635   0.056481   5.736640   0.258302  -4.490560   0.277753   0.000000   0.000000   0.000000   3.285750  10.422200  -3.470310  -0.669918   2.426410 -14.663900   0.901540  -4.826660   2.670180  -0.000000   0.000000   0.000000
  0.311462  89.527200  -0.315569  -3.054600  -8.806760  -1.286950   0.596112   4.771190  -0.635993   1.252170   9.535170  -1.328910  -0.311250  -0.051586   0.010260  -0.511399  -0.104841   5.489990  -3.393890  -0.322404   1.012980 -74.870600  14.926900  -3.623920  -1.479920  -3.264080 -13.654400  15.280200  -1.672330   0.546861  43.135900  36.609800 -65.624800 -29.413900   0.001675   0.014365  -9.706990   0.000831   0.006163 -32.942800   5.875100  -8.976630 -27.330800  -0.000934  -0.001281 -19.131600   0.004454  -0.008664 -29.105100  -1.280960   2.299480 -43.696300  -0.003215  -0.006563 -29.101700   0.000108  -0.014566 -30.078700  -1.319860   2.277390 -45.157200   0.000934  -0.013088 -30.074800   0.001278   0.000429 -36.932800  -1.582260   2.103610 -55.442900   0.002662  -0.001000 -36.924900   0.008983  -0.005948   9.140560   0.155841   4.789030  69.344500   4.628800  -7.948350   0.049895  -6.103910  10.577900 -10.300100  -8.177880   1.591210 -51.349000  38.333600  76.984600  13.193400  -0.000419  -0.000706   1.596670   0.006074  -0.007558  36.031200  11.219400  14.974200  30.690400   0.009409   0.006513  21.483300   0.001323   0.006443  31.056000   3.665580   6.060920  46.875200  -0.000667  -0.001073  31.218900   0.003918   0.006216  27.887300  -3.722930  -6.994150  32.781100   0.005999   0.001588  21.832300   0.004058  -0.000468  31.435100  -4.424930  -7.194000  47.570200   0.003426   0.000314  31.681700  -0.006087  -0.001004   2.394850  12.220200  -1.839220   0.530505   0.091620   5.722590   0.263375  -4.497310   0.290132  -0.000000   0.000000  -0.000000   3.295240  10.422700  -3.456130  -0.687033   2.421640 -14.683400   0.905880  -4.812900   2.669860   0.000000   0.000000   0.000000
  0.311482  89.527800  -0.349630  -3.053830  -8.818920  -1.281830   0.596299   4.803440  -0.634372   1.252780   9.599670  -1.326100  -0.342013  -0.065794   0.010241  -0.561952  -0.133322   5.529170  -3.393720  -0.335305   1.004890 -74.861800  14.936200  -3.616270  -1.505770  -3.270220 -13.680600  15.255400  -1.625120   0.534298  43.144000  36.623700 -65.629300 -29.421900   0.001684   0.014376  -9.710960   0.000835   0.006171 -32.908800   5.892300  -9.013970 -27.305700  -0.000939  -0.001280 -19.114000   0.004454  -0.008661 -29.096300  -1.288730   2.314250 -43.683500  -0.003212  -0.006546 -29.093200   0.000088  -0.014565 -30.051800  -1.327140   2.292440 -45.117400   0.000926  -0.013083 -30.048200   0.001264   0.000455 -36.910800  -1.591480   2.117550 -55.410300   0.002653  -0.000979 -36.903200   0.008969  -0.005944   9.160900   0.086328   4.803860  69.323000   4.640430  -7.959530   0.059358  -6.148560  10.588100 -10.253200  -8.069550   1.625560 -51.414600  38.395100  77.080600  13.203100  -0.000429  -0.000744   1.601530   0.006063  -0.007541  36.007900  11.218900  14.984100  30.672200   0.009428   0.006499  21.470600   0.001298   0.006413  31.052100   3.672750   6.072890  46.870500  -0.000677  -0.001108  31.215800   0.003903   0.006208  27.894500  -3.717460  -6.982990  32.826100   0.005980   0.001625  21.862200   0.003991  -0.000439  31.454800  -4.419830  -7.180320  47.598400   0.003367   0.000370  31.700500  -0.006174  -0.000955   2.394990  12.178100  -1.845400   0.526750   0.147120   5.697610   0.271386  -4.504570   0.313470   0.000000   0.000000   0.000000   3.316700  10.425700  -3.426740  -0.719100   2.407920 -14.724000   0.912036  -4.788170   2.669500  -0.000000   0.000000   0.000000
  0.312314  89.528900  -0.375037  -3.054360  -8.829130  -1.273960   0.596153   4.831190  -0.633352   1.252710   9.655190  -1.324410  -0.359121  -0.072017   0.010209  -0.590119  -0.145976   5.568640  -3.391300  -0.344018   0.999616 -74.859000  14.954700  -3.612570  -1.526920  -3.266640 -13.701600  15.246100  -1.602520   0.545443  43.125700  36.610200 -65.599900 -29.439500   0.001682   0.014385  -9.719720   0.000848   0.006188 -32.879400   5.914120  -9.057760 -27.283900  -0.000944  -0.001279 -19.098800   0.004452  -0.008662 -29.093100  -1.306580   2.346750 -43.679900  -0.003213  -0.006515 -29.090800   0.000047  -0.014566 -30.038600  -1.345070   2.324900 -45.098800   0.000920  -0.013071 -30.035800   0.001242   0.000498 -36.894200  -1.612900   2.147840 -55.386600   0.002641  -0.000948 -36.887500   0.008945  -0.005938   9.180630   0.018155   4.808400  69.294100   4.647800  -7.953130   0.057345  -6.138100  10.586800 -10.258300  -7.915170   1.635260 -51.479400  38.439000  77.138900  13.169600  -0.000444  -0.000784   1.584800   0.006044  -0.007498  35.960300  11.217900  15.004300  30.635100   0.009452   0.006481  21.444600   0.001268   0.006362  31.032000   3.691080   6.107740  46.842800  -0.000689  -0.001156  31.197300   0.003880   0.006196  27.894900  -3.715410  -6.979020  32.826400   0.005952   0.001678  21.862400   0.003899  -0.000400  31.440700  -4.424490  -7.191510  47.577400   0.003288   0.000444  31.686600  -0.006307  -0.000882   2.395510  12.145100  -1.857000   0.523263   0.187147   5.672960   0.277187  -4.505150   0.338547   0.000000   0.000000  -0.000000   3.348450  10.438700  -3.389070  -0.754625   2.381230 -14.776900   0.914751  -4.763750   2.670050  -0.000000   0.000000   0.000000
